<?xml version="1.0" encoding="UTF-8"?>
<!DOCTYPE svg PUBLIC "-//W3C//DTD SVG 1.1//EN" "http://www.w3.org/Graphics/SVG/1.1/DTD/svg11.dtd">
<svg xmlns="http://www.w3.org/2000/svg" xml:space="preserve" width="607mm" height="485mm" version="1.1" style="shape-rendering:geometricPrecision; text-rendering:geometricPrecision; image-rendering:optimizeQuality; fill-rule:evenodd; clip-rule:evenodd" viewBox="0 0 60700 48500" xmlns:xlink="http://www.w3.org/1999/xlink">
  <defs>
    <style type="text/css">
      <![CDATA[
        .str0 {stroke:#10b981;stroke-width:423.33;stroke-miterlimit:22.9256}
        .fil0 {fill:none}
      ]]>
    </style>
  </defs>
  <g id="Capa_x0020_1">
    <path class="fil0 str0" d="M30192.9 47613.17c4409.9,-9464.26 4096.6,-19130.18 -80.11,-27964.1 -392.21,-829.58 -1246.09,-2444.66 -1820.23,-3167.51 667.53,2276.7 1331.83,3021.55 1953.3,6406.15 410.38,2235 634.63,4574.75 601.41,7093.93 -83.06,6301.57 -1353.17,10242.2 -3417.17,16517.87 -1323.98,-485.89 -3895.11,-3001.28 -4682.62,-3879.67 -1420.65,-1584.61 -2303.99,-2990.13 -3155.25,-4635.23 -1594.67,-3081.91 -2559.74,-6761.82 -2387.93,-11325.25 264.68,-7029.69 4416.73,-10132.91 2357.45,-19872.32 -220.01,-1040.35 -843.09,-3130.47 -1278.03,-4064.45 -248.53,-533.67 -448.14,-852.85 -552.76,-1363.85 9557.5,2908.53 23432.02,10349.98 26819.04,19819.07 2989.05,8356.45 -1091.99,16709.37 -7872.58,22554.93 -1431.99,1234.52 -4663.78,3617.9 -6484.52,3880.43z"/>
  </g>
</svg>
